# MagicaVoxel @ Ephtracy

# group
o 

# material
mtllib BladeMasterLevel1-0.mtl
usemtl palette

# normals
vn -1 0 0
vn 1 0 0
vn 0 0 1
vn 0 0 -1
vn 0 -1 0
vn 0 1 0

# texcoords
vt 0.876953 0.5
vt 0.880859 0.5
vt 0.884766 0.5
vt 0.888672 0.5
vt 0.892578 0.5
vt 0.896484 0.5
vt 0.916016 0.5
vt 0.919922 0.5
vt 0.966797 0.5

# verts
v -4.5 0.3 -7.5
v -4.5 0.3 -7.7
v -4.5 0.4 -7.4
v -4.5 0.4 -7.5
v -4.5 0.4 -7.7
v -4.5 0.4 -7.8
v -4.5 0.5 -7.3
v -4.5 0.5 -7.4
v -4.5 0.5 -7.8
v -4.5 0.5 -7.9
v -4.5 0.6 -7.2
v -4.5 0.6 -7.3
v -4.5 0.6 -7.9
v -4.5 0.6 -8
v -4.5 0.7 -7.1
v -4.5 0.7 -7.2
v -4.5 0.7 -8
v -4.5 0.7 -8.1
v -4.5 0.8 -7
v -4.5 0.8 -7.1
v -4.5 0.8 -8.1
v -4.5 0.8 -8.2
v -4.5 0.9 -7
v -4.5 0.9 -7.1
v -4.5 0.9 -8.1
v -4.5 0.9 -8.2
v -4.5 1 -7.1
v -4.5 1 -7.2
v -4.5 1 -8
v -4.5 1 -8.1
v -4.5 1.1 -7.2
v -4.5 1.1 -7.3
v -4.5 1.1 -7.9
v -4.5 1.1 -8
v -4.5 1.2 -7.3
v -4.5 1.2 -7.4
v -4.5 1.2 -7.8
v -4.5 1.2 -7.9
v -4.5 1.3 -7.4
v -4.5 1.3 -7.5
v -4.5 1.3 -7.7
v -4.5 1.3 -7.8
v -4.5 1.4 -7.5
v -4.5 1.4 -7.7
v -4.4 0.2 -7.5
v -4.4 0.2 -7.7
v -4.4 0.3 -7.4
v -4.4 0.3 -7.5
v -4.4 0.3 -7.7
v -4.4 0.3 -7.8
v -4.4 0.4 -7.3
v -4.4 0.4 -7.4
v -4.4 0.4 -7.5
v -4.4 0.4 -7.7
v -4.4 0.4 -7.8
v -4.4 0.4 -7.9
v -4.4 0.5 -7.2
v -4.4 0.5 -7.3
v -4.4 0.5 -7.4
v -4.4 0.5 -7.8
v -4.4 0.5 -7.9
v -4.4 0.5 -8
v -4.4 0.6 -7.1
v -4.4 0.6 -7.2
v -4.4 0.6 -7.3
v -4.4 0.6 -7.9
v -4.4 0.6 -8
v -4.4 0.6 -8.1
v -4.4 0.7 -7
v -4.4 0.7 -7.1
v -4.4 0.7 -7.2
v -4.4 0.7 -8
v -4.4 0.7 -8.1
v -4.4 0.7 -8.2
v -4.4 0.8 -6.9
v -4.4 0.8 -7
v -4.4 0.8 -7.1
v -4.4 0.8 -8.1
v -4.4 0.8 -8.2
v -4.4 0.8 -8.3
v -4.4 0.9 -6.9
v -4.4 0.9 -7
v -4.4 0.9 -7.1
v -4.4 0.9 -8.1
v -4.4 0.9 -8.2
v -4.4 0.9 -8.3
v -4.4 1 -7
v -4.4 1 -7.1
v -4.4 1 -7.2
v -4.4 1 -8
v -4.4 1 -8.1
v -4.4 1 -8.2
v -4.4 1.1 -7.1
v -4.4 1.1 -7.2
v -4.4 1.1 -7.3
v -4.4 1.1 -7.9
v -4.4 1.1 -8
v -4.4 1.1 -8.1
v -4.4 1.2 -7.2
v -4.4 1.2 -7.3
v -4.4 1.2 -7.4
v -4.4 1.2 -7.8
v -4.4 1.2 -7.9
v -4.4 1.2 -8
v -4.4 1.3 -7.3
v -4.4 1.3 -7.4
v -4.4 1.3 -7.5
v -4.4 1.3 -7.7
v -4.4 1.3 -7.8
v -4.4 1.3 -7.9
v -4.4 1.4 -7.4
v -4.4 1.4 -7.5
v -4.4 1.4 -7.7
v -4.4 1.4 -7.8
v -4.4 1.5 -7.5
v -4.4 1.5 -7.7
v -4.3 0.2 -7.5
v -4.3 0.2 -7.7
v -4.3 0.3 -7.4
v -4.3 0.3 -7.5
v -4.3 0.3 -7.7
v -4.3 0.3 -7.8
v -4.3 0.4 -7.3
v -4.3 0.4 -7.4
v -4.3 0.4 -7.5
v -4.3 0.4 -7.7
v -4.3 0.4 -7.8
v -4.3 0.4 -7.9
v -4.3 0.5 -7.2
v -4.3 0.5 -7.3
v -4.3 0.5 -7.4
v -4.3 0.5 -7.5
v -4.3 0.5 -7.7
v -4.3 0.5 -7.8
v -4.3 0.5 -7.9
v -4.3 0.5 -8
v -4.3 0.6 -7.1
v -4.3 0.6 -7.2
v -4.3 0.6 -7.3
v -4.3 0.6 -7.4
v -4.3 0.6 -7.5
v -4.3 0.6 -7.7
v -4.3 0.6 -7.8
v -4.3 0.6 -7.9
v -4.3 0.6 -8
v -4.3 0.6 -8.1
v -4.3 0.7 -7
v -4.3 0.7 -7.1
v -4.3 0.7 -7.2
v -4.3 0.7 -7.3
v -4.3 0.7 -7.4
v -4.3 0.7 -7.5
v -4.3 0.7 -7.7
v -4.3 0.7 -7.8
v -4.3 0.7 -7.9
v -4.3 0.7 -8
v -4.3 0.7 -8.1
v -4.3 0.7 -8.2
v -4.3 0.8 -6.9
v -4.3 0.8 -7
v -4.3 0.8 -7.1
v -4.3 0.8 -7.2
v -4.3 0.8 -7.3
v -4.3 0.8 -7.4
v -4.3 0.8 -7.5
v -4.3 0.8 -7.7
v -4.3 0.8 -7.8
v -4.3 0.8 -7.9
v -4.3 0.8 -8
v -4.3 0.8 -8.1
v -4.3 0.8 -8.2
v -4.3 0.8 -8.3
v -4.3 0.9 -6.9
v -4.3 0.9 -7
v -4.3 0.9 -7.1
v -4.3 0.9 -7.2
v -4.3 0.9 -7.3
v -4.3 0.9 -7.4
v -4.3 0.9 -7.5
v -4.3 0.9 -7.7
v -4.3 0.9 -7.8
v -4.3 0.9 -7.9
v -4.3 0.9 -8
v -4.3 0.9 -8.1
v -4.3 0.9 -8.2
v -4.3 0.9 -8.3
v -4.3 1 -7
v -4.3 1 -7.1
v -4.3 1 -7.2
v -4.3 1 -7.3
v -4.3 1 -7.4
v -4.3 1 -7.5
v -4.3 1 -7.7
v -4.3 1 -7.8
v -4.3 1 -7.9
v -4.3 1 -8
v -4.3 1 -8.1
v -4.3 1 -8.2
v -4.3 1.1 -7.1
v -4.3 1.1 -7.2
v -4.3 1.1 -7.3
v -4.3 1.1 -7.4
v -4.3 1.1 -7.5
v -4.3 1.1 -7.7
v -4.3 1.1 -7.8
v -4.3 1.1 -7.9
v -4.3 1.1 -8
v -4.3 1.1 -8.1
v -4.3 1.2 -7.2
v -4.3 1.2 -7.3
v -4.3 1.2 -7.4
v -4.3 1.2 -7.5
v -4.3 1.2 -7.7
v -4.3 1.2 -7.8
v -4.3 1.2 -7.9
v -4.3 1.2 -8
v -4.3 1.3 -7.3
v -4.3 1.3 -7.4
v -4.3 1.3 -7.5
v -4.3 1.3 -7.7
v -4.3 1.3 -7.8
v -4.3 1.3 -7.9
v -4.3 1.4 -7.4
v -4.3 1.4 -7.5
v -4.3 1.4 -7.7
v -4.3 1.4 -7.8
v -4.3 1.5 -7.5
v -4.3 1.5 -7.7
v -4.4 0.8 -6.9
v -4.4 0.9 -6.9
v -4.3 0.8 -6.9
v -4.3 0.9 -6.9
v -4.5 0.8 -7
v -4.5 0.9 -7
v -4.4 0.7 -7
v -4.4 0.8 -7
v -4.4 0.9 -7
v -4.4 1 -7
v -4.3 0.7 -7
v -4.3 0.8 -7
v -4.3 0.9 -7
v -4.3 1 -7
v -4.5 0.7 -7.1
v -4.5 0.8 -7.1
v -4.5 0.9 -7.1
v -4.5 1 -7.1
v -4.4 0.6 -7.1
v -4.4 0.7 -7.1
v -4.4 0.8 -7.1
v -4.4 0.9 -7.1
v -4.4 1 -7.1
v -4.4 1.1 -7.1
v -4.3 0.6 -7.1
v -4.3 0.7 -7.1
v -4.3 1 -7.1
v -4.3 1.1 -7.1
v -4.5 0.6 -7.2
v -4.5 0.7 -7.2
v -4.5 1 -7.2
v -4.5 1.1 -7.2
v -4.4 0.5 -7.2
v -4.4 0.6 -7.2
v -4.4 0.7 -7.2
v -4.4 1 -7.2
v -4.4 1.1 -7.2
v -4.4 1.2 -7.2
v -4.3 0.5 -7.2
v -4.3 0.6 -7.2
v -4.3 1.1 -7.2
v -4.3 1.2 -7.2
v -4.5 0.5 -7.3
v -4.5 0.6 -7.3
v -4.5 1.1 -7.3
v -4.5 1.2 -7.3
v -4.4 0.4 -7.3
v -4.4 0.5 -7.3
v -4.4 0.6 -7.3
v -4.4 1.1 -7.3
v -4.4 1.2 -7.3
v -4.4 1.3 -7.3
v -4.3 0.4 -7.3
v -4.3 0.5 -7.3
v -4.3 1.2 -7.3
v -4.3 1.3 -7.3
v -4.5 0.4 -7.4
v -4.5 0.5 -7.4
v -4.5 1.2 -7.4
v -4.5 1.3 -7.4
v -4.4 0.3 -7.4
v -4.4 0.4 -7.4
v -4.4 0.5 -7.4
v -4.4 1.2 -7.4
v -4.4 1.3 -7.4
v -4.4 1.4 -7.4
v -4.3 0.3 -7.4
v -4.3 0.4 -7.4
v -4.3 1.3 -7.4
v -4.3 1.4 -7.4
v -4.5 0.3 -7.5
v -4.5 0.4 -7.5
v -4.5 1.3 -7.5
v -4.5 1.4 -7.5
v -4.4 0.2 -7.5
v -4.4 0.3 -7.5
v -4.4 0.4 -7.5
v -4.4 1.3 -7.5
v -4.4 1.4 -7.5
v -4.4 1.5 -7.5
v -4.3 0.2 -7.5
v -4.3 0.3 -7.5
v -4.3 1.4 -7.5
v -4.3 1.5 -7.5
v -4.5 0.3 -7.7
v -4.5 0.4 -7.7
v -4.5 1.3 -7.7
v -4.5 1.4 -7.7
v -4.4 0.2 -7.7
v -4.4 0.3 -7.7
v -4.4 0.4 -7.7
v -4.4 1.3 -7.7
v -4.4 1.4 -7.7
v -4.4 1.5 -7.7
v -4.3 0.2 -7.7
v -4.3 0.3 -7.7
v -4.3 1.4 -7.7
v -4.3 1.5 -7.7
v -4.5 0.4 -7.8
v -4.5 0.5 -7.8
v -4.5 1.2 -7.8
v -4.5 1.3 -7.8
v -4.4 0.3 -7.8
v -4.4 0.4 -7.8
v -4.4 0.5 -7.8
v -4.4 1.2 -7.8
v -4.4 1.3 -7.8
v -4.4 1.4 -7.8
v -4.3 0.3 -7.8
v -4.3 0.4 -7.8
v -4.3 1.3 -7.8
v -4.3 1.4 -7.8
v -4.5 0.5 -7.9
v -4.5 0.6 -7.9
v -4.5 1.1 -7.9
v -4.5 1.2 -7.9
v -4.4 0.4 -7.9
v -4.4 0.5 -7.9
v -4.4 0.6 -7.9
v -4.4 1.1 -7.9
v -4.4 1.2 -7.9
v -4.4 1.3 -7.9
v -4.3 0.4 -7.9
v -4.3 0.5 -7.9
v -4.3 1.2 -7.9
v -4.3 1.3 -7.9
v -4.5 0.6 -8
v -4.5 0.7 -8
v -4.5 1 -8
v -4.5 1.1 -8
v -4.4 0.5 -8
v -4.4 0.6 -8
v -4.4 0.7 -8
v -4.4 1 -8
v -4.4 1.1 -8
v -4.4 1.2 -8
v -4.3 0.5 -8
v -4.3 0.6 -8
v -4.3 1.1 -8
v -4.3 1.2 -8
v -4.5 0.7 -8.1
v -4.5 0.8 -8.1
v -4.5 0.9 -8.1
v -4.5 1 -8.1
v -4.4 0.6 -8.1
v -4.4 0.7 -8.1
v -4.4 0.8 -8.1
v -4.4 0.9 -8.1
v -4.4 1 -8.1
v -4.4 1.1 -8.1
v -4.3 0.6 -8.1
v -4.3 0.7 -8.1
v -4.3 1 -8.1
v -4.3 1.1 -8.1
v -4.5 0.8 -8.2
v -4.5 0.9 -8.2
v -4.4 0.7 -8.2
v -4.4 0.8 -8.2
v -4.4 0.9 -8.2
v -4.4 1 -8.2
v -4.3 0.7 -8.2
v -4.3 0.8 -8.2
v -4.3 0.9 -8.2
v -4.3 1 -8.2
v -4.4 0.8 -8.3
v -4.4 0.9 -8.3
v -4.3 0.8 -8.3
v -4.3 0.9 -8.3
v -4.4 0.2 -7.5
v -4.3 0.2 -7.5
v -4.4 0.2 -7.7
v -4.3 0.2 -7.7
v -4.4 0.3 -7.4
v -4.3 0.3 -7.4
v -4.5 0.3 -7.5
v -4.4 0.3 -7.5
v -4.3 0.3 -7.5
v -4.5 0.3 -7.7
v -4.4 0.3 -7.7
v -4.3 0.3 -7.7
v -4.4 0.3 -7.8
v -4.3 0.3 -7.8
v -4.4 0.4 -7.3
v -4.3 0.4 -7.3
v -4.5 0.4 -7.4
v -4.4 0.4 -7.4
v -4.3 0.4 -7.4
v -4.5 0.4 -7.5
v -4.4 0.4 -7.5
v -4.5 0.4 -7.7
v -4.4 0.4 -7.7
v -4.5 0.4 -7.8
v -4.4 0.4 -7.8
v -4.3 0.4 -7.8
v -4.4 0.4 -7.9
v -4.3 0.4 -7.9
v -4.4 0.5 -7.2
v -4.3 0.5 -7.2
v -4.5 0.5 -7.3
v -4.4 0.5 -7.3
v -4.3 0.5 -7.3
v -4.5 0.5 -7.4
v -4.4 0.5 -7.4
v -4.5 0.5 -7.8
v -4.4 0.5 -7.8
v -4.5 0.5 -7.9
v -4.4 0.5 -7.9
v -4.3 0.5 -7.9
v -4.4 0.5 -8
v -4.3 0.5 -8
v -4.4 0.6 -7.1
v -4.3 0.6 -7.1
v -4.5 0.6 -7.2
v -4.4 0.6 -7.2
v -4.3 0.6 -7.2
v -4.5 0.6 -7.3
v -4.4 0.6 -7.3
v -4.5 0.6 -7.9
v -4.4 0.6 -7.9
v -4.5 0.6 -8
v -4.4 0.6 -8
v -4.3 0.6 -8
v -4.4 0.6 -8.1
v -4.3 0.6 -8.1
v -4.4 0.7 -7
v -4.3 0.7 -7
v -4.5 0.7 -7.1
v -4.4 0.7 -7.1
v -4.3 0.7 -7.1
v -4.5 0.7 -7.2
v -4.4 0.7 -7.2
v -4.5 0.7 -8
v -4.4 0.7 -8
v -4.5 0.7 -8.1
v -4.4 0.7 -8.1
v -4.3 0.7 -8.1
v -4.4 0.7 -8.2
v -4.3 0.7 -8.2
v -4.4 0.8 -6.9
v -4.3 0.8 -6.9
v -4.5 0.8 -7
v -4.4 0.8 -7
v -4.3 0.8 -7
v -4.5 0.8 -7.1
v -4.4 0.8 -7.1
v -4.5 0.8 -8.1
v -4.4 0.8 -8.1
v -4.5 0.8 -8.2
v -4.4 0.8 -8.2
v -4.3 0.8 -8.2
v -4.4 0.8 -8.3
v -4.3 0.8 -8.3
v -4.4 0.9 -6.9
v -4.3 0.9 -6.9
v -4.5 0.9 -7
v -4.4 0.9 -7
v -4.3 0.9 -7
v -4.5 0.9 -7.1
v -4.4 0.9 -7.1
v -4.5 0.9 -8.1
v -4.4 0.9 -8.1
v -4.5 0.9 -8.2
v -4.4 0.9 -8.2
v -4.3 0.9 -8.2
v -4.4 0.9 -8.3
v -4.3 0.9 -8.3
v -4.4 1 -7
v -4.3 1 -7
v -4.5 1 -7.1
v -4.4 1 -7.1
v -4.3 1 -7.1
v -4.5 1 -7.2
v -4.4 1 -7.2
v -4.5 1 -8
v -4.4 1 -8
v -4.5 1 -8.1
v -4.4 1 -8.1
v -4.3 1 -8.1
v -4.4 1 -8.2
v -4.3 1 -8.2
v -4.4 1.1 -7.1
v -4.3 1.1 -7.1
v -4.5 1.1 -7.2
v -4.4 1.1 -7.2
v -4.3 1.1 -7.2
v -4.5 1.1 -7.3
v -4.4 1.1 -7.3
v -4.5 1.1 -7.9
v -4.4 1.1 -7.9
v -4.5 1.1 -8
v -4.4 1.1 -8
v -4.3 1.1 -8
v -4.4 1.1 -8.1
v -4.3 1.1 -8.1
v -4.4 1.2 -7.2
v -4.3 1.2 -7.2
v -4.5 1.2 -7.3
v -4.4 1.2 -7.3
v -4.3 1.2 -7.3
v -4.5 1.2 -7.4
v -4.4 1.2 -7.4
v -4.5 1.2 -7.8
v -4.4 1.2 -7.8
v -4.5 1.2 -7.9
v -4.4 1.2 -7.9
v -4.3 1.2 -7.9
v -4.4 1.2 -8
v -4.3 1.2 -8
v -4.4 1.3 -7.3
v -4.3 1.3 -7.3
v -4.5 1.3 -7.4
v -4.4 1.3 -7.4
v -4.3 1.3 -7.4
v -4.5 1.3 -7.5
v -4.4 1.3 -7.5
v -4.5 1.3 -7.7
v -4.4 1.3 -7.7
v -4.5 1.3 -7.8
v -4.4 1.3 -7.8
v -4.3 1.3 -7.8
v -4.4 1.3 -7.9
v -4.3 1.3 -7.9
v -4.4 1.4 -7.4
v -4.3 1.4 -7.4
v -4.5 1.4 -7.5
v -4.4 1.4 -7.5
v -4.3 1.4 -7.5
v -4.5 1.4 -7.7
v -4.4 1.4 -7.7
v -4.3 1.4 -7.7
v -4.4 1.4 -7.8
v -4.3 1.4 -7.8
v -4.4 1.5 -7.5
v -4.3 1.5 -7.5
v -4.4 1.5 -7.7
v -4.3 1.5 -7.7

# faces
f 4/7/1 2/7/1 1/7/1
f 5/7/1 2/7/1 4/7/1
f 8/7/1 4/7/1 3/7/1
f 8/7/1 6/7/1 5/7/1
f 8/7/1 5/7/1 4/7/1
f 9/7/1 6/7/1 8/7/1
f 12/7/1 8/7/1 7/7/1
f 12/7/1 10/7/1 9/7/1
f 12/7/1 9/7/1 8/7/1
f 13/7/1 10/7/1 12/7/1
f 16/7/1 12/7/1 11/7/1
f 16/7/1 14/7/1 13/7/1
f 16/7/1 13/7/1 12/7/1
f 17/7/1 14/7/1 16/7/1
f 20/7/1 16/7/1 15/7/1
f 20/7/1 18/7/1 17/7/1
f 20/7/1 17/7/1 16/7/1
f 21/7/1 18/7/1 20/7/1
f 23/7/1 20/7/1 19/7/1
f 23/7/1 22/7/1 21/7/1
f 23/7/1 21/7/1 20/7/1
f 24/7/1 22/7/1 23/7/1
f 25/7/1 22/7/1 24/7/1
f 26/7/1 22/7/1 25/7/1
f 27/7/1 25/7/1 24/7/1
f 28/7/1 25/7/1 27/7/1
f 29/7/1 25/7/1 28/7/1
f 30/7/1 25/7/1 29/7/1
f 31/7/1 29/7/1 28/7/1
f 32/7/1 29/7/1 31/7/1
f 33/7/1 29/7/1 32/7/1
f 34/7/1 29/7/1 33/7/1
f 35/7/1 33/7/1 32/7/1
f 36/7/1 33/7/1 35/7/1
f 37/7/1 33/7/1 36/7/1
f 38/7/1 33/7/1 37/7/1
f 39/7/1 37/7/1 36/7/1
f 40/7/1 37/7/1 39/7/1
f 41/7/1 37/7/1 40/7/1
f 42/7/1 37/7/1 41/7/1
f 43/7/1 41/7/1 40/7/1
f 44/7/1 41/7/1 43/7/1
f 48/8/1 46/8/1 45/8/1
f 49/8/1 46/8/1 48/8/1
f 52/8/1 48/8/1 47/8/1
f 53/8/1 48/8/1 52/8/1
f 54/8/1 50/8/1 49/8/1
f 55/8/1 50/8/1 54/8/1
f 58/8/1 52/8/1 51/8/1
f 59/8/1 52/8/1 58/8/1
f 60/8/1 56/8/1 55/8/1
f 61/8/1 56/8/1 60/8/1
f 64/8/1 58/8/1 57/8/1
f 65/8/1 58/8/1 64/8/1
f 66/8/1 62/8/1 61/8/1
f 67/8/1 62/8/1 66/8/1
f 70/8/1 64/8/1 63/8/1
f 71/8/1 64/8/1 70/8/1
f 72/8/1 68/8/1 67/8/1
f 73/8/1 68/8/1 72/8/1
f 76/8/1 70/8/1 69/8/1
f 77/8/1 70/8/1 76/8/1
f 78/8/1 74/8/1 73/8/1
f 79/8/1 74/8/1 78/8/1
f 81/8/1 76/8/1 75/8/1
f 82/8/1 76/8/1 81/8/1
f 85/8/1 80/8/1 79/8/1
f 86/8/1 80/8/1 85/8/1
f 87/8/1 83/8/1 82/8/1
f 88/8/1 83/8/1 87/8/1
f 91/8/1 85/8/1 84/8/1
f 92/8/1 85/8/1 91/8/1
f 93/8/1 89/8/1 88/8/1
f 94/8/1 89/8/1 93/8/1
f 97/8/1 91/8/1 90/8/1
f 98/8/1 91/8/1 97/8/1
f 99/8/1 95/8/1 94/8/1
f 100/8/1 95/8/1 99/8/1
f 103/8/1 97/8/1 96/8/1
f 104/8/1 97/8/1 103/8/1
f 105/8/1 101/8/1 100/8/1
f 106/8/1 101/8/1 105/8/1
f 109/8/1 103/8/1 102/8/1
f 110/8/1 103/8/1 109/8/1
f 111/8/1 107/8/1 106/8/1
f 112/8/1 107/8/1 111/8/1
f 113/8/1 109/8/1 108/8/1
f 114/8/1 109/8/1 113/8/1
f 115/8/1 113/8/1 112/8/1
f 116/8/1 113/8/1 115/8/1
f 117/8/2 118/8/2 120/8/2
f 120/8/2 118/8/2 121/8/2
f 119/8/2 120/8/2 124/8/2
f 120/6/2 121/6/2 125/6/2
f 124/8/2 120/8/2 125/8/2
f 121/8/2 122/8/2 126/8/2
f 125/6/2 121/6/2 126/6/2
f 126/8/2 122/8/2 127/8/2
f 123/8/2 124/8/2 130/8/2
f 124/6/2 125/6/2 131/6/2
f 130/8/2 124/8/2 131/8/2
f 125/5/2 126/5/2 132/5/2
f 131/6/2 125/6/2 132/6/2
f 126/6/2 127/6/2 133/6/2
f 132/5/2 126/5/2 133/5/2
f 127/8/2 128/8/2 134/8/2
f 133/6/2 127/6/2 134/6/2
f 134/8/2 128/8/2 135/8/2
f 129/8/2 130/8/2 138/8/2
f 130/1/2 131/1/2 139/1/2
f 138/8/2 130/8/2 139/8/2
f 131/3/2 132/3/2 140/3/2
f 139/1/2 131/1/2 140/1/2
f 132/2/2 133/2/2 141/2/2
f 140/3/2 132/3/2 141/3/2
f 133/3/2 134/3/2 142/3/2
f 141/2/2 133/2/2 142/2/2
f 134/1/2 135/1/2 143/1/2
f 142/3/2 134/3/2 143/3/2
f 135/8/2 136/8/2 144/8/2
f 143/1/2 135/1/2 144/1/2
f 144/8/2 136/8/2 145/8/2
f 137/8/2 138/8/2 148/8/2
f 138/1/2 139/1/2 149/1/2
f 148/8/2 138/8/2 149/8/2
f 139/3/2 140/3/2 150/3/2
f 149/1/2 139/1/2 150/1/2
f 140/2/2 141/2/2 151/2/2
f 150/3/2 140/3/2 151/3/2
f 141/1/2 142/1/2 152/1/2
f 151/2/2 141/2/2 152/2/2
f 142/2/2 143/2/2 153/2/2
f 152/1/2 142/1/2 153/1/2
f 143/3/2 144/3/2 154/3/2
f 153/2/2 143/2/2 154/2/2
f 144/1/2 145/1/2 155/1/2
f 154/3/2 144/3/2 155/3/2
f 145/8/2 146/8/2 156/8/2
f 155/1/2 145/1/2 156/1/2
f 156/8/2 146/8/2 157/8/2
f 147/8/2 148/8/2 160/8/2
f 148/6/2 149/6/2 161/6/2
f 160/8/2 148/8/2 161/8/2
f 149/3/2 150/3/2 162/3/2
f 161/6/2 149/6/2 162/6/2
f 150/2/2 151/2/2 163/2/2
f 162/3/2 150/3/2 163/3/2
f 151/6/2 152/6/2 164/6/2
f 163/2/2 151/2/2 164/2/2
f 152/4/2 153/4/2 165/4/2
f 164/6/2 152/6/2 165/6/2
f 153/6/2 154/6/2 166/6/2
f 165/4/2 153/4/2 166/4/2
f 154/2/2 155/2/2 167/2/2
f 166/6/2 154/6/2 167/6/2
f 155/3/2 156/3/2 168/3/2
f 167/2/2 155/2/2 168/2/2
f 156/6/2 157/6/2 169/6/2
f 168/3/2 156/3/2 169/3/2
f 157/8/2 158/8/2 170/8/2
f 169/6/2 157/6/2 170/6/2
f 170/8/2 158/8/2 171/8/2
f 159/8/2 160/8/2 173/8/2
f 160/1/2 161/1/2 174/1/2
f 173/8/2 160/8/2 174/8/2
f 161/3/2 162/3/2 175/3/2
f 174/1/2 161/1/2 175/1/2
f 162/2/2 163/2/2 176/2/2
f 175/3/2 162/3/2 176/3/2
f 163/1/2 164/1/2 177/1/2
f 176/2/2 163/2/2 177/2/2
f 164/4/2 165/4/2 178/4/2
f 177/1/2 164/1/2 178/1/2
f 165/9/2 166/9/2 179/9/2
f 178/4/2 165/4/2 179/4/2
f 166/4/2 167/4/2 180/4/2
f 179/9/2 166/9/2 180/9/2
f 167/1/2 168/1/2 181/1/2
f 180/4/2 167/4/2 181/4/2
f 168/2/2 169/2/2 182/2/2
f 181/1/2 168/1/2 182/1/2
f 169/3/2 170/3/2 183/3/2
f 182/2/2 169/2/2 183/2/2
f 170/1/2 171/1/2 184/1/2
f 183/3/2 170/3/2 184/3/2
f 171/8/2 172/8/2 185/8/2
f 184/1/2 171/1/2 185/1/2
f 185/8/2 172/8/2 186/8/2
f 174/8/2 175/8/2 187/8/2
f 175/6/2 176/6/2 188/6/2
f 187/8/2 175/8/2 188/8/2
f 176/5/2 177/5/2 189/5/2
f 188/6/2 176/6/2 189/6/2
f 177/2/2 178/2/2 190/2/2
f 189/5/2 177/5/2 190/5/2
f 178/6/2 179/6/2 191/6/2
f 190/2/2 178/2/2 191/2/2
f 179/4/2 180/4/2 192/4/2
f 191/6/2 179/6/2 192/6/2
f 180/6/2 181/6/2 193/6/2
f 192/4/2 180/4/2 193/4/2
f 181/2/2 182/2/2 194/2/2
f 193/6/2 181/6/2 194/6/2
f 182/5/2 183/5/2 195/5/2
f 194/2/2 182/2/2 195/2/2
f 183/6/2 184/6/2 196/6/2
f 195/5/2 183/5/2 196/5/2
f 184/8/2 185/8/2 197/8/2
f 196/6/2 184/6/2 197/6/2
f 197/8/2 185/8/2 198/8/2
f 188/8/2 189/8/2 199/8/2
f 189/1/2 190/1/2 200/1/2
f 199/8/2 189/8/2 200/8/2
f 190/3/2 191/3/2 201/3/2
f 200/1/2 190/1/2 201/1/2
f 191/2/2 192/2/2 202/2/2
f 201/3/2 191/3/2 202/3/2
f 192/1/2 193/1/2 203/1/2
f 202/2/2 192/2/2 203/2/2
f 193/2/2 194/2/2 204/2/2
f 203/1/2 193/1/2 204/1/2
f 194/3/2 195/3/2 205/3/2
f 204/2/2 194/2/2 205/2/2
f 195/1/2 196/1/2 206/1/2
f 205/3/2 195/3/2 206/3/2
f 196/8/2 197/8/2 207/8/2
f 206/1/2 196/1/2 207/1/2
f 207/8/2 197/8/2 208/8/2
f 200/8/2 201/8/2 209/8/2
f 201/6/2 202/6/2 210/6/2
f 209/8/2 201/8/2 210/8/2
f 202/5/2 203/5/2 211/5/2
f 210/6/2 202/6/2 211/6/2
f 203/2/2 204/2/2 212/2/2
f 211/5/2 203/5/2 212/5/2
f 204/5/2 205/5/2 213/5/2
f 212/2/2 204/2/2 213/2/2
f 205/6/2 206/6/2 214/6/2
f 213/5/2 205/5/2 214/5/2
f 206/8/2 207/8/2 215/8/2
f 214/6/2 206/6/2 215/6/2
f 215/8/2 207/8/2 216/8/2
f 210/8/2 211/8/2 217/8/2
f 211/6/2 212/6/2 218/6/2
f 217/8/2 211/8/2 218/8/2
f 212/5/2 213/5/2 219/5/2
f 218/6/2 212/6/2 219/6/2
f 213/6/2 214/6/2 220/6/2
f 219/5/2 213/5/2 220/5/2
f 214/8/2 215/8/2 221/8/2
f 220/6/2 214/6/2 221/6/2
f 221/8/2 215/8/2 222/8/2
f 218/8/2 219/8/2 223/8/2
f 219/6/2 220/6/2 224/6/2
f 223/8/2 219/8/2 224/8/2
f 220/8/2 221/8/2 225/8/2
f 224/6/2 220/6/2 225/6/2
f 225/8/2 221/8/2 226/8/2
f 224/8/2 225/8/2 227/8/2
f 227/8/2 225/8/2 228/8/2
f 231/8/3 230/8/3 229/8/3
f 232/8/3 230/8/3 231/8/3
f 236/7/3 234/7/3 233/7/3
f 237/7/3 234/7/3 236/7/3
f 239/8/3 236/8/3 235/8/3
f 240/8/3 236/8/3 239/8/3
f 241/8/3 238/8/3 237/8/3
f 242/8/3 238/8/3 241/8/3
f 248/7/3 244/7/3 243/7/3
f 249/7/3 244/7/3 248/7/3
f 250/7/3 246/7/3 245/7/3
f 251/7/3 246/7/3 250/7/3
f 253/8/3 248/8/3 247/8/3
f 254/8/3 248/8/3 253/8/3
f 255/8/3 252/8/3 251/8/3
f 256/8/3 252/8/3 255/8/3
f 262/7/3 258/7/3 257/7/3
f 263/7/3 258/7/3 262/7/3
f 264/7/3 260/7/3 259/7/3
f 265/7/3 260/7/3 264/7/3
f 267/8/3 262/8/3 261/8/3
f 268/8/3 262/8/3 267/8/3
f 269/8/3 266/8/3 265/8/3
f 270/8/3 266/8/3 269/8/3
f 276/7/3 272/7/3 271/7/3
f 277/7/3 272/7/3 276/7/3
f 278/7/3 274/7/3 273/7/3
f 279/7/3 274/7/3 278/7/3
f 281/8/3 276/8/3 275/8/3
f 282/8/3 276/8/3 281/8/3
f 283/8/3 280/8/3 279/8/3
f 284/8/3 280/8/3 283/8/3
f 290/7/3 286/7/3 285/7/3
f 291/7/3 286/7/3 290/7/3
f 292/7/3 288/7/3 287/7/3
f 293/7/3 288/7/3 292/7/3
f 295/8/3 290/8/3 289/8/3
f 296/8/3 290/8/3 295/8/3
f 297/8/3 294/8/3 293/8/3
f 298/8/3 294/8/3 297/8/3
f 304/7/3 300/7/3 299/7/3
f 305/7/3 300/7/3 304/7/3
f 306/7/3 302/7/3 301/7/3
f 307/7/3 302/7/3 306/7/3
f 309/8/3 304/8/3 303/8/3
f 310/8/3 304/8/3 309/8/3
f 311/8/3 308/8/3 307/8/3
f 312/8/3 308/8/3 311/8/3
f 313/7/4 314/7/4 318/7/4
f 318/7/4 314/7/4 319/7/4
f 315/7/4 316/7/4 320/7/4
f 320/7/4 316/7/4 321/7/4
f 317/8/4 318/8/4 323/8/4
f 323/8/4 318/8/4 324/8/4
f 321/8/4 322/8/4 325/8/4
f 325/8/4 322/8/4 326/8/4
f 327/7/4 328/7/4 332/7/4
f 332/7/4 328/7/4 333/7/4
f 329/7/4 330/7/4 334/7/4
f 334/7/4 330/7/4 335/7/4
f 331/8/4 332/8/4 337/8/4
f 337/8/4 332/8/4 338/8/4
f 335/8/4 336/8/4 339/8/4
f 339/8/4 336/8/4 340/8/4
f 341/7/4 342/7/4 346/7/4
f 346/7/4 342/7/4 347/7/4
f 343/7/4 344/7/4 348/7/4
f 348/7/4 344/7/4 349/7/4
f 345/8/4 346/8/4 351/8/4
f 351/8/4 346/8/4 352/8/4
f 349/8/4 350/8/4 353/8/4
f 353/8/4 350/8/4 354/8/4
f 355/7/4 356/7/4 360/7/4
f 360/7/4 356/7/4 361/7/4
f 357/7/4 358/7/4 362/7/4
f 362/7/4 358/7/4 363/7/4
f 359/8/4 360/8/4 365/8/4
f 365/8/4 360/8/4 366/8/4
f 363/8/4 364/8/4 367/8/4
f 367/8/4 364/8/4 368/8/4
f 369/7/4 370/7/4 374/7/4
f 374/7/4 370/7/4 375/7/4
f 371/7/4 372/7/4 376/7/4
f 376/7/4 372/7/4 377/7/4
f 373/8/4 374/8/4 379/8/4
f 379/8/4 374/8/4 380/8/4
f 377/8/4 378/8/4 381/8/4
f 381/8/4 378/8/4 382/8/4
f 383/7/4 384/7/4 386/7/4
f 386/7/4 384/7/4 387/7/4
f 385/8/4 386/8/4 389/8/4
f 389/8/4 386/8/4 390/8/4
f 387/8/4 388/8/4 391/8/4
f 391/8/4 388/8/4 392/8/4
f 393/8/4 394/8/4 395/8/4
f 395/8/4 394/8/4 396/8/4
f 399/8/5 398/8/5 397/8/5
f 400/8/5 398/8/5 399/8/5
f 404/8/5 402/8/5 401/8/5
f 405/8/5 402/8/5 404/8/5
f 406/7/5 404/7/5 403/7/5
f 407/7/5 404/7/5 406/7/5
f 409/8/5 408/8/5 407/8/5
f 410/8/5 408/8/5 409/8/5
f 414/8/5 412/8/5 411/8/5
f 415/8/5 412/8/5 414/8/5
f 416/7/5 414/7/5 413/7/5
f 417/7/5 414/7/5 416/7/5
f 420/7/5 419/7/5 418/7/5
f 421/7/5 419/7/5 420/7/5
f 423/8/5 422/8/5 421/8/5
f 424/8/5 422/8/5 423/8/5
f 428/8/5 426/8/5 425/8/5
f 429/8/5 426/8/5 428/8/5
f 430/7/5 428/7/5 427/7/5
f 431/7/5 428/7/5 430/7/5
f 434/7/5 433/7/5 432/7/5
f 435/7/5 433/7/5 434/7/5
f 437/8/5 436/8/5 435/8/5
f 438/8/5 436/8/5 437/8/5
f 442/8/5 440/8/5 439/8/5
f 443/8/5 440/8/5 442/8/5
f 444/7/5 442/7/5 441/7/5
f 445/7/5 442/7/5 444/7/5
f 448/7/5 447/7/5 446/7/5
f 449/7/5 447/7/5 448/7/5
f 451/8/5 450/8/5 449/8/5
f 452/8/5 450/8/5 451/8/5
f 456/8/5 454/8/5 453/8/5
f 457/8/5 454/8/5 456/8/5
f 458/7/5 456/7/5 455/7/5
f 459/7/5 456/7/5 458/7/5
f 462/7/5 461/7/5 460/7/5
f 463/7/5 461/7/5 462/7/5
f 465/8/5 464/8/5 463/8/5
f 466/8/5 464/8/5 465/8/5
f 470/8/5 468/8/5 467/8/5
f 471/8/5 468/8/5 470/8/5
f 472/7/5 470/7/5 469/7/5
f 473/7/5 470/7/5 472/7/5
f 476/7/5 475/7/5 474/7/5
f 477/7/5 475/7/5 476/7/5
f 479/8/5 478/8/5 477/8/5
f 480/8/5 478/8/5 479/8/5
f 481/8/6 482/8/6 484/8/6
f 484/8/6 482/8/6 485/8/6
f 483/7/6 484/7/6 486/7/6
f 486/7/6 484/7/6 487/7/6
f 488/7/6 489/7/6 490/7/6
f 490/7/6 489/7/6 491/7/6
f 491/8/6 492/8/6 493/8/6
f 493/8/6 492/8/6 494/8/6
f 495/8/6 496/8/6 498/8/6
f 498/8/6 496/8/6 499/8/6
f 497/7/6 498/7/6 500/7/6
f 500/7/6 498/7/6 501/7/6
f 502/7/6 503/7/6 504/7/6
f 504/7/6 503/7/6 505/7/6
f 505/8/6 506/8/6 507/8/6
f 507/8/6 506/8/6 508/8/6
f 509/8/6 510/8/6 512/8/6
f 512/8/6 510/8/6 513/8/6
f 511/7/6 512/7/6 514/7/6
f 514/7/6 512/7/6 515/7/6
f 516/7/6 517/7/6 518/7/6
f 518/7/6 517/7/6 519/7/6
f 519/8/6 520/8/6 521/8/6
f 521/8/6 520/8/6 522/8/6
f 523/8/6 524/8/6 526/8/6
f 526/8/6 524/8/6 527/8/6
f 525/7/6 526/7/6 528/7/6
f 528/7/6 526/7/6 529/7/6
f 530/7/6 531/7/6 532/7/6
f 532/7/6 531/7/6 533/7/6
f 533/8/6 534/8/6 535/8/6
f 535/8/6 534/8/6 536/8/6
f 537/8/6 538/8/6 540/8/6
f 540/8/6 538/8/6 541/8/6
f 539/7/6 540/7/6 542/7/6
f 542/7/6 540/7/6 543/7/6
f 544/7/6 545/7/6 546/7/6
f 546/7/6 545/7/6 547/7/6
f 547/8/6 548/8/6 549/8/6
f 549/8/6 548/8/6 550/8/6
f 551/8/6 552/8/6 554/8/6
f 554/8/6 552/8/6 555/8/6
f 553/7/6 554/7/6 556/7/6
f 556/7/6 554/7/6 557/7/6
f 557/8/6 558/8/6 559/8/6
f 559/8/6 558/8/6 560/8/6
f 561/8/6 562/8/6 563/8/6
f 563/8/6 562/8/6 564/8/6
